<svg xmlns="http://www.w3.org/2000/svg" version="1.1" xmlns:xlink="http://www.w3.org/1999/xlink" xmlns:svgjs="http://svgjs.dev/svgjs" width="2000" height="1500" viewBox="0 0 2000 1500"><rect width="2000" height="1500" fill="#a437db"></rect><g transform="matrix(0.75,0,0,0.75,249.90041770186338,591.8410967465753)"><svg viewBox="0 0 345 73" data-background-color="#a437db" preserveAspectRatio="xMidYMid meet" height="423" width="2000" xmlns="http://www.w3.org/2000/svg" xmlns:xlink="http://www.w3.org/1999/xlink"><g id="tight-bounds" transform="matrix(1,0,0,1,0.02290392857142365,-0.1072499999999934)"><svg viewBox="0 0 344.95419214285715 73.2145" height="73.2145" width="344.95419214285715"><g><svg viewBox="0 0 344.95419214285715 73.2145" height="73.2145" width="344.95419214285715"><g><svg viewBox="0 0 344.95419214285715 73.2145" height="73.2145" width="344.95419214285715"><g id="textblocktransform"><svg viewBox="0 0 344.95419214285715 73.2145" height="73.2145" width="344.95419214285715" id="textblock"><g><svg viewBox="0 0 344.95419214285715 73.2145" height="73.2145" width="344.95419214285715"><g><svg><g></g><g></g></svg></g><g><svg><g><svg></svg></g><g></g></svg></g><g id="text-0"><svg viewBox="0 0 344.95419214285715 73.2145" height="73.2145" width="344.95419214285715"><g transform="matrix(1,0,0,1,0,0)"><svg width="254.3496" viewBox="0.9 -36.15 157.19 45.25" height="73.2145" data-palette-color="#ffffff"><path d="M8.05 9.1Q5.15 9.1 3.03 7.63 0.9 6.15 0.9 2.75L0.9 2.75Q0.9-1.35 5.15-2.85L5.15-2.85Q3.95-3.5 3.18-4.53 2.4-5.55 2.4-6.9L2.4-6.9Q2.4-8.85 3.78-9.85 5.15-10.85 6.8-11.25L6.8-11.25Q5.15-12.45 4.2-14.2 3.25-15.95 3.25-18.05L3.25-18.05Q3.25-22.25 6.1-24.58 8.95-26.9 13.9-26.9L13.9-26.9Q16.65-26.9 18.9-26L18.9-26Q22.15-27.55 22.7-30.55L22.7-30.55 26.9-30.55Q26.9-28.2 25.53-26.5 24.15-24.8 21.8-24.25L21.8-24.25Q24.6-21.75 24.6-18.05L24.6-18.05Q24.6-13.85 21.73-11.53 18.85-9.2 13.9-9.2L13.9-9.2 9.7-9.2Q8.35-9.2 7.63-8.6 6.9-8 6.9-7.05L6.9-7.05Q6.9-6.1 7.63-5.5 8.35-4.9 9.7-4.9L9.7-4.9 20.25-4.9Q23.35-4.9 25.15-3.03 26.95-1.15 26.95 1.5L26.95 1.5Q26.95 3.4 26.1 5.15 25.25 6.9 23.38 8 21.5 9.1 18.65 9.1L18.65 9.1 8.05 9.1ZM13.95-12.6Q17.05-12.6 18.65-14.03 20.25-15.45 20.25-18.05L20.25-18.05Q20.25-20.65 18.65-22.08 17.05-23.5 13.95-23.5L13.95-23.5Q10.85-23.5 9.25-22.08 7.65-20.65 7.65-18.05L7.65-18.05Q7.65-15.45 9.25-14.03 10.85-12.6 13.95-12.6L13.95-12.6ZM8.45 5.55L18.75 5.55Q20.4 5.55 21.5 4.65 22.6 3.75 22.6 2.25L22.6 2.25Q22.6 0.75 21.73-0.13 20.85-1 19.4-1L19.4-1 8.45-1Q7-1 6.15-0.13 5.3 0.75 5.3 2.25L5.3 2.25Q5.3 3.75 6.15 4.65 7 5.55 8.45 5.55L8.45 5.55ZM41.7 0.6Q35.65 0.6 32.6-2.78 29.55-6.15 29.55-13.15L29.55-13.15Q29.55-20.15 32.6-23.53 35.65-26.9 41.7-26.9L41.7-26.9Q47.75-26.9 50.8-23.53 53.85-20.15 53.85-13.15L53.85-13.15Q53.85-6.15 50.8-2.78 47.75 0.6 41.7 0.6L41.7 0.6ZM41.7-3.05Q45.7-3.05 47.5-5.38 49.3-7.7 49.3-12.95L49.3-12.95 49.3-13.35Q49.3-18.6 47.5-20.93 45.7-23.25 41.7-23.25L41.7-23.25Q37.7-23.25 35.9-20.93 34.1-18.6 34.1-13.35L34.1-13.35 34.1-12.95Q34.1-7.7 35.9-5.38 37.7-3.05 41.7-3.05L41.7-3.05ZM58.95 0L58.95-36.15 63.34-36.15 63.34 0 58.95 0ZM78.84 0.6Q73.84 0.6 71.14-2.75 68.44-6.1 68.44-13.15L68.44-13.15Q68.44-20.05 71.12-23.48 73.79-26.9 78.44-26.9L78.44-26.9Q81.24-26.9 83.19-26.05 85.14-25.2 86.44-23.3L86.44-23.3 86.74-23.3 86.74-36.15 91.14-36.15 91.14 0 87.84 0 87.29-3.55 86.99-3.55Q85.69-1.5 83.57-0.45 81.44 0.6 78.84 0.6L78.84 0.6ZM79.94-3.05Q83.49-3.05 85.12-5.55 86.74-8.05 86.74-12.95L86.74-12.95 86.74-13.15Q86.74-18.15 85.09-20.7 83.44-23.25 79.94-23.25L79.94-23.25Q77.44-23.25 75.92-22.28 74.39-21.3 73.69-19.1 72.99-16.9 72.99-13.15L72.99-13.15 72.99-12.95Q72.99-9.25 73.69-7.1 74.39-4.95 75.89-4 77.39-3.05 79.94-3.05L79.94-3.05ZM104.99 0.6Q101.59 0.6 98.94-1 96.29-2.6 96.29-6.8L96.29-6.8Q96.29-11.85 100.79-13.73 105.29-15.6 113.79-15.6L113.79-15.6 113.79-18.5Q113.79-20.8 112.49-22.03 111.19-23.25 107.79-23.25L107.79-23.25Q104.59-23.25 103.21-22.05 101.84-20.85 101.84-19.1L101.84-19.1 101.84-18.5 97.59-18.5Q97.54-18.8 97.54-19.6L97.54-19.6Q97.54-23.1 100.44-25 103.34-26.9 108.19-26.9L108.19-26.9Q113.09-26.9 115.64-24.85 118.19-22.8 118.19-19.05L118.19-19.05 118.19-4.8Q118.19-3.9 118.69-3.48 119.19-3.05 119.94-3.05L119.94-3.05 121.94-3.05 121.94-0.2Q120.64 0.4 118.54 0.4L118.54 0.4Q116.84 0.4 115.69-0.63 114.54-1.65 114.14-3.35L114.14-3.35 113.79-3.35Q112.44-1.5 110.11-0.45 107.79 0.6 104.99 0.6L104.99 0.6ZM106.14-3.05Q108.09-3.05 109.84-3.85 111.59-4.65 112.69-6.23 113.79-7.8 113.79-10.05L113.79-10.05 113.79-11.95Q107.34-11.95 104.11-10.93 100.89-9.9 100.89-7.05L100.89-7.05Q100.89-4.9 102.21-3.98 103.54-3.05 106.14-3.05L106.14-3.05ZM130.44 0L122.54-26.3 127.09-26.3 131.14-11.4Q131.54-10.05 132.69-5.2L132.69-5.2 132.94-5.2 134.24-11.4 137.69-26.3 143.04-26.3 146.69-11.4Q147.04-10.05 148.04-5.2L148.04-5.2 148.29-5.2Q149.34-9.85 149.79-11.4L149.79-11.4 153.79-26.3 158.09-26.3 150.19 0 145.39 0 141.59-15.7 140.39-21.1 140.19-21.1Q139.39-17.1 139.04-15.7L139.04-15.7 135.29 0 130.44 0Z" opacity="1" transform="matrix(1,0,0,1,0,0)" fill="#ffffff" class="wordmark-text-0" data-fill-palette-color="primary"></path></svg></g><g><svg xmlns="http://www.w3.org/2000/svg" xmlns:xlink="http://www.w3.org/1999/xlink" version="1.1" x="271.6351" y="0" viewBox="1 1 70.1 70" enable-background="new 0 0 72 72" xml:space="preserve" height="73.2145" width="73.31909214285714" class="icon-cg-0" data-fill-palette-color="accent" id="cg-0"><path fill="#ffffff" d="M67.4 66.2V1.5c0-0.3-0.2-0.5-0.5-0.5H5.1C4.8 1 4.6 1.2 4.6 1.5v64.8c0 0.3-0.2 0.5-0.5 0.5H1.5c-0.3 0-0.5 0.2-0.5 0.5v3.4C1 70.8 1.2 71 1.5 71h69.1c0.3 0 0.5-0.2 0.5-0.5v-3.4c0-0.3-0.2-0.5-0.5-0.5h-2.7C67.6 66.7 67.4 66.5 67.4 66.2zM11.4 10h18.1c0.3 0 0.5 0.2 0.5 0.5v13.9c0 0.3-0.2 0.5-0.5 0.5H11.4c-0.3 0-0.5-0.2-0.5-0.5V10.4C11 10.2 11.2 10 11.4 10zM57.5 65.1h-43c-0.3 0-0.5-0.2-0.5-0.5V39.4c0-0.3 0.2-0.5 0.5-0.5H34c0.3 0 0.5 0.2 0.5 0.5v21.2c0 0.3 0.2 0.5 0.5 0.5h2.1c0.3 0 0.5-0.2 0.5-0.5V39.4c0-0.3 0.2-0.5 0.5-0.5h19.5c0.3 0 0.5 0.2 0.5 0.5v25.3C57.9 64.9 57.7 65.1 57.5 65.1zM60.6 24.8H42.4c-0.3 0-0.5-0.2-0.5-0.5V10.4c0-0.3 0.2-0.5 0.5-0.5h18.1c0.3 0 0.5 0.2 0.5 0.5v13.9C61 24.6 60.8 24.8 60.6 24.8z" data-fill-palette-color="accent"></path></svg></g></svg></g></svg></g></svg></g></svg></g><g></g></svg></g><defs></defs></svg><rect width="344.95419214285715" height="73.2145" fill="none" stroke="none" visibility="hidden"></rect></g></svg></g></svg>