<?xml version="1.0" encoding="UTF-8"?>
<svg version="1.1" xmlns="http://www.w3.org/2000/svg" width="351" height="144">
<path d="M 0 0 C 115.8 0 231.7 0 351 0 C 351 47.5 351 95 351 144 C 235.2 144 119.3 144 0 144 C 0 96.5 0 49 0 0 Z" fill="#5a59c6" transform="translate(0)"/>
<path d="M 0 0 C 5.5 2.5 9.2 5.8 12 11.3 C 12.1 14.6 12 18 12 21.3 C 15.9 21.3 19.9 21.3 24 21.3 C 24.1 25.7 24.2 30.2 24.4 34.6 C 24.4 36.1 24.5 37.6 24.5 39.1 C 24.6 41.3 24.7 43.5 24.7 45.7 C 24.8 47 24.8 48.3 24.9 49.7 C 25 55.9 25 62.1 25 68.3 C 14.4 68.3 3.8 68.3 -7 68.3 C -7 60.7 -7 53.1 -7 45.3 C -7.7 45.3 -8.4 45.3 -9 45.3 C -9 46 -9 46.6 -9 47.3 C -10.8 49.5 -10.8 49.5 -13 51.3 C -15.3 51.1 -15.3 51.1 -17 50.3 C -17 46.3 -17 46.3 -15.8 44.6 C -15.3 44.1 -14.7 43.6 -14.2 43.1 C -13.4 42.3 -13.4 42.3 -12.5 41.5 C -11 40.3 -11 40.3 -9 40.3 C -8.4 39 -7.7 37.7 -7 36.3 C -3 36.3 -3 36.3 -0.2 38.7 C 0.8 39.7 1.7 40.8 2.7 41.8 C 3.2 42.3 3.7 42.9 4.2 43.4 C 5.5 44.7 6.7 46 8 47.3 C 7.3 48.6 6.6 49.9 6 51.3 C 2.9 49.9 1.5 48.8 -1 46.3 C -1.4 51.9 -1.7 57.5 -2 63.3 C 5.2 63.3 12.5 63.3 20 63.3 C 19.7 60.5 19.7 60.5 19.5 57.7 C 18.8 47.3 19 36.8 19 26.3 C 3.5 26.3 -12.1 26.3 -28 26.3 C -28.3 39.2 -28.3 39.2 -28.6 52.1 C -28.8 61.5 -29.2 70.9 -30 80.3 C -21.5 80.3 -12.9 80.3 -4 80.3 C -4 82 -4 83.6 -4 85.3 C -14.3 85.3 -24.5 85.3 -35 85.3 C -34.9 79.4 -34.8 73.5 -34.7 67.6 C -34.6 65.6 -34.6 63.6 -34.5 61.6 C -34.3 48.2 -33.8 34.7 -33 21.3 C -29.1 21.3 -25.1 21.3 -21 21.3 C -21.1 19.6 -21.2 17.9 -21.3 16.2 C -21.3 11 -20.7 8.2 -17 4.3 C -11.7 -0.1 -6.9 -2.4 0 0 Z" fill="#f1f2f9" transform="translate(103,23.7)"/>
<path d="M 0 0 C 1.6 0 3.3 0 5 0 C 5 9.6 5 19.1 5 29 C 2.3 29 -0.3 29 -3 29 C -3.7 29.1 -4.4 29.1 -5.1 29.2 C -9.6 29.5 -11.4 29.5 -15.1 26.5 C -17.2 23.4 -17.7 20.7 -17.5 17 C -16.6 13.4 -14.6 11.5 -12 9 C -9.2 7.6 -7.1 7.8 -4 8 C -3 8.7 -2 9.3 -1 10 C -0.7 6.7 -0.3 3.4 0 0 Z" fill="#faf9fd" transform="translate(221,65)"/>
<path d="M 0 0 C 0 1 0 2 0 3 C -1 3.5 -1 3.5 -2 4 C -2.1 5.1 -2.2 6.2 -2.3 7.4 C -3 11 -3 11 -5.2 12.9 C -8.3 14.1 -10.7 14.2 -14 14 C -14 14.7 -14 15.3 -14 16 C -12.4 15.9 -12.4 15.9 -10.8 15.8 C -6.6 16 -4 17 -1 20 C -0.6 23.1 -0.8 24.6 -2.3 27.3 C -6.5 30 -11.1 29.8 -16 29 C -18.3 27.7 -18.3 27.7 -20 26 C -20.3 23 -20.3 23 -20 20 C -20 19 -20 18 -20 17 C -19.6 16.1 -19.3 15.2 -18.9 14.3 C -17.7 11 -17.7 11 -18.7 7.4 C -19 4 -19 4 -17.4 1 C -11.9 -2.2 -6.2 -0.8 0 0 Z" fill="#f3f3fb" transform="translate(165,74)"/>
<path d="M 0 0 C 1.6 0 3.3 0 5 0 C 6.2 3.9 7 6.9 7 11 C 7.7 11 8.3 11 9 11 C 9.1 10.4 9.3 9.7 9.4 9.1 C 9.6 8.3 9.8 7.5 9.9 6.6 C 10.1 5.8 10.3 5 10.5 4.2 C 11 2 11 2 12 0 C 14 0 16 0 18 0 C 18.5 1.3 19 2.5 19.5 3.8 C 19.8 4.5 20.1 5.2 20.3 6 C 21 8 21 8 21 11 C 21.7 11 22.3 11 23 11 C 23.7 7.4 24.3 3.7 25 0 C 26.6 0 28.3 0 30 0 C 29.4 7 27.1 13.4 25 20 C 23 20 21 20 19 20 C 15.6 10.6 15.6 10.6 16 6 C 15.3 6 14.7 6 14 6 C 13.9 7 13.8 8 13.6 9.1 C 13 12.9 12.1 16.3 11 20 C 9 20 7 20 5 20 C -0.4 6.1 -0.4 6.1 0 0 Z" fill="#f4f2fb" transform="translate(254,74)"/>
<path d="M 0 0 C 4 0.3 5.7 0.9 8.8 3.3 C 11.4 7.3 11.4 10.5 10.8 15.3 C 9 18.1 7.8 19.7 4.8 21.3 C 1.7 21.7 -1.2 21.8 -4.3 21.3 C -7.6 18.6 -8.9 17.1 -9.7 13 C -10 8.6 -9.7 6.8 -6.8 3.3 C -6 2.6 -5.1 1.9 -4.3 1.3 C -3.3 0.3 -3.3 0.3 0 0 Z" fill="#f8f8fc" transform="translate(178.3,72.8)"/>
<path d="M 0 0 C 3.1 1.8 5.5 3.5 8 6 C 8 9.6 8 13.3 8 17 C 0.7 17 -6.5 17 -14 17 C -14 7 -14 7 -12.2 4 C -8 0.2 -5.6 -0.6 0 0 Z" fill="#3e58be" transform="translate(101,28)"/>
<path d="M 0 0 C 2.7 2 4.7 3.5 5.4 6.9 C 5.5 9.1 5.4 11.2 5.3 13.3 C 5.3 14.1 5.3 14.8 5.2 15.6 C 5.2 17.4 5.1 19.2 5 21 C 2.7 21 0.3 21 -2 21 C -2.7 21 -3.4 21.1 -4.1 21.1 C -4.8 21.1 -5.6 21.2 -6.4 21.2 C -7.2 21.2 -8 21.3 -8.8 21.3 C -11 21 -11 21 -12.8 19.7 C -14.7 17.1 -14.5 15.1 -14 12 C -11.8 9.8 -10.5 9.1 -7.4 8.7 C -6.5 8.7 -5.7 8.8 -4.8 8.8 C -3.4 8.9 -3.4 8.9 -2 8.9 C -1.4 8.9 -0.7 9 0 9 C -0.3 8 -0.7 7 -1 6 C -3 6 -5 6 -7 6 C -7.3 6.3 -7.7 6.7 -8 7 C -9.7 7 -11.3 7 -13 7 C -12.6 4.5 -12.2 3.2 -10.4 1.3 C -7 -0.5 -3.7 -1 0 0 Z" fill="#f7f5fc" transform="translate(245,73)"/>
<path d="M 0 0 C 4.5 2.5 7.6 5.7 9.9 10.4 C 9.9 12.1 10 13.8 9.9 15.5 C 9.9 16.4 9.9 17.3 9.9 18.3 C 9.9 19 9.9 19.7 9.9 20.4 C 9.5 20.4 9.2 20.4 8.9 20.4 C 8.9 17.4 8.9 14.4 8.9 11.4 C 7.9 11.9 7.9 11.9 6.9 12.4 C 6.4 14.2 6.4 14.2 6.3 16.4 C 6 20.3 6 20.3 4.9 21.4 C 3.1 21.5 1.3 21.5 -0.5 21.5 C -1.6 21.5 -2.6 21.5 -3.7 21.5 C -4.9 21.5 -6 21.4 -7.2 21.4 C -8.3 21.4 -9.5 21.4 -10.6 21.4 C -13.5 21.4 -16.3 21.4 -19.1 21.4 C -19.5 18.4 -19.8 15.4 -20.1 12.4 C -21.1 12 -22.1 11.7 -23.1 11.4 C -21.7 5.1 -18.4 2.6 -13.2 -0.9 C -8.5 -2.5 -4.4 -2 0 0 Z M -17.1 8.4 C -18.9 11.5 -18.9 11.5 -18.1 20.4 C -10.9 20.4 -3.6 20.4 3.9 20.4 C 5.1 10 5.1 10 1 6.3 C -6.4 1.8 -11.1 2.4 -17.1 8.4 Z" fill="#f3f5fa" transform="translate(105.1,24.6)"/>
<path d="M 0 0 C 1 0.7 2 1.3 3 2 C 3 5 3 7.9 3 11 C 10.9 10.7 18.8 10.3 27 10 C 27.3 7.4 27.7 4.7 28 2 C 29 1.7 30 1.3 31 1 C 31.1 1.9 31.1 1.9 31.1 2.9 C 31.2 4.1 31.2 4.1 31.3 5.4 C 31.4 6.2 31.4 7 31.5 7.8 C 31.8 10.4 31.8 10.4 35 12 C 33 14 33 14 29.6 14.2 C 28.1 14.2 26.6 14.2 25.1 14.2 C 24.4 14.2 23.6 14.2 22.8 14.2 C 20.3 14.2 17.9 14.2 15.4 14.1 C 13.7 14.1 12 14.1 10.3 14.1 C 6.2 14.1 2.1 14 -2 14 C -2.3 13 -2.7 12 -3 11 C -2.3 11 -1.7 11 -1 11 C -1 10.3 -1 9.6 -1 8.8 C -1 7.9 -1.1 7 -1.1 6.1 C -1.1 5.1 -1.1 4.2 -1.1 3.3 C -1 1 -1 1 0 0 Z" fill="#fdfdfd" transform="translate(83,35)"/>
<path d="M 0 0 C 1.6 0 3.3 0 5 0 C 5 9.6 5 19.1 5 29 C 3.4 29 1.7 29 0 29 C 0 19.4 0 9.9 0 0 Z" fill="#ffffff" transform="translate(194,65)"/>
<path d="M 0 0 C 4.4 1.7 6.9 4.8 9 9 C 9.1 10.7 9.1 12.4 9.1 14.1 C 9.1 15 9 15.9 9 16.9 C 9 17.6 9 18.3 9 19 C 8.7 19 8.3 19 8 19 C 8 16 8 13.1 8 10 C 7 10.5 7 10.5 6 11 C 5.6 12.9 5.6 12.9 5.4 15 C 5.1 18.9 5.1 18.9 4 20 C 2.2 20.1 0.4 20.1 -1.3 20.1 C -2.4 20.1 -3.5 20.1 -4.6 20.1 C -5.8 20.1 -6.9 20.1 -8.1 20.1 C -9.2 20.1 -10.3 20.1 -11.5 20 C -14.3 20 -17.2 20 -20 20 C -20 17 -20 14.1 -20 11 C -19.7 11 -19.3 11 -19 11 C -19 13.6 -19 16.3 -19 19 C -11.7 19 -4.5 19 3 19 C 3.1 11.2 3.1 11.2 -0.6 4.8 C -1.4 4.2 -2.2 3.6 -3 3 C -2 2 -1 1 0 0 Z" fill="#d8dcf1" transform="translate(106,26)"/>
<path d="M 0 0 C 3.1 0.3 3.1 0.3 5 1.4 C 6.7 4.5 5.9 7 5.1 10.3 C 4.4 11 3.7 11.6 3.1 12.3 C -0.4 12.1 -0.4 12.1 -3.9 11.3 C -5.9 8.3 -5.9 8.3 -5.7 5.3 C -4.7 1.4 -4 0.4 0 0 Z" fill="#7164cd" transform="translate(214.9,77.7)"/>
<path d="M 0 0 C 0.7 0 1.3 0 2 0 C 2 0.7 2 1.3 2 2 C 2.6 2 3.1 2 3.7 1.9 C 6.2 1.9 8.8 1.8 11.3 1.8 C 12.2 1.7 13.1 1.7 14 1.6 C 14.8 1.6 15.7 1.6 16.6 1.6 C 17.3 1.6 18.1 1.6 18.9 1.5 C 21 2 21 2 24 6 C 15.4 6 6.8 6 -2 6 C -1 1 -1 1 0 0 Z" fill="#fdfdfd" transform="translate(98,85)"/>
<path d="M 0 0 C 1 0.1 2 0.2 3 0.3 C 5.3 3.8 5.4 5.2 5 9.3 C 3.8 11.3 3.8 11.3 2 12.3 C -1.3 12.1 -2.6 11.7 -5 9.3 C -5.3 5.8 -5.3 5.8 -5 2.3 C -3 0.3 -3 0.3 0 0 Z" fill="#6160c8" transform="translate(179,77.7)"/>
<path d="M 0 0 C 7.9 0 15.8 0 24 0 C 24 1.3 24 2.6 24 4 C 15.4 4 6.8 4 -2 4 C -1.3 2.7 -0.7 1.4 0 0 Z" fill="#fdfdfd" transform="translate(75,105)"/>
<path d="M 0 0 C 0 3.3 0 6.6 0 10 C 8.6 10 17.2 10 26 10 C 26 10.3 26 10.7 26 11 C 18.1 11 10.2 11 2 11 C 1.3 12.3 0.7 13.6 0 15 C -1.6 15 -3.3 15 -5 15 C -5.1 13.1 -5.2 11.1 -5.3 9.2 C -5.3 8.1 -5.3 7 -5.4 5.9 C -5 3 -5 3 -3 1.1 C -1 0 -1 0 0 0 Z" fill="#eaedf7" transform="translate(73,94)"/>
<path d="M 0 0 C 0.3 0.7 0.7 1.3 1 2 C 1.9 1.7 2.7 1.3 3.6 1 C 7 0 9.6 -0.2 13 0 C 13.3 1.3 13.7 2.6 14 4 C 10.4 4.3 6.7 4.7 3 5 C 3 4.3 3 3.7 3 3 C 2 3 1 3 0 3 C 0 2 0 1 0 0 Z" fill="#816ed2" transform="translate(231,78)"/>
<path d="M 0 0 C 1.1 0 2.3 0 3.4 0.1 C 4 2 4 2 4.4 4.1 C 3.4 5.1 3.4 5.1 -0.1 5.1 C -1.3 5.1 -2.4 5.1 -3.6 5.1 C -4.1 3.1 -4.1 3.1 -4.6 1.1 C -3.6 0.1 -3.6 0.1 0 0 Z" fill="#565dc5" transform="translate(154.6,93.9)"/>
<path d="M 0 0 C 2.6 0.4 2.6 0.4 5 1 C 5 2.6 5 4.3 5 6 C 3 6.3 1 6.7 -1 7 C -1.6 4.6 -1.6 4.6 -2 2 C -1.3 1.3 -0.7 0.7 0 0 Z" fill="#5f65c8" transform="translate(153,77)"/>
<path d="M 0 0 C 1.1 0 2.3 0 3.4 0.1 C 1.6 3.9 1.6 3.9 0.4 5.1 C -1.2 5.1 -2.9 5.1 -4.6 5.1 C -4.6 0.1 -4.6 0.1 0 0 Z" fill="#8370d3" transform="translate(241.6,84.9)"/>
<path d="M 0 0 C 0.7 0.3 1.3 0.7 2 1 C 1 2.1 0.1 3.3 -0.9 4.4 C -1.4 5 -1.9 5.6 -2.5 6.3 C -3.6 7.6 -4.8 8.8 -6 10 C -6 6 -6 6 -4.7 4.3 C -4.1 3.8 -3.6 3.3 -3 2.8 C -2.2 2 -2.2 2 -1.3 1.2 C -0.9 0.8 -0.4 0.4 0 0 Z" fill="#cfd6ed" transform="translate(92,64)"/>
</svg>
